<?xml version="1.0" encoding="UTF-8" standalone="no"?><!-- Generator: Gravit.io --><svg xmlns="http://www.w3.org/2000/svg" xmlns:xlink="http://www.w3.org/1999/xlink" style="isolation:isolate" viewBox="699 234 512 704" width="512pt" height="704pt"><defs><clipPath id="_clipPath_HnKjcNUYBJ89bj623MkCwCjY4RfD0mFa"><rect x="699" y="234" width="512" height="704"/></clipPath></defs><g clip-path="url(#_clipPath_HnKjcNUYBJ89bj623MkCwCjY4RfD0mFa)"><g><path d=" M 1192.234 317.425 L 1165.616 317.425 C 1162.413 317.425 1159.776 314.647 1159.748 311.16 C 1159.238 306.199 1156.999 301.721 1153.739 298.489 C 1150.394 295.2 1145.971 293.188 1141.096 293.188 L 1125.448 293.188 C 1122.188 293.188 1119.581 290.354 1119.581 286.867 C 1119.581 281.283 1117.454 276.209 1114.053 272.552 C 1110.652 268.867 1105.947 266.571 1100.816 266.571 L 1077.712 266.571 C 1072.553 266.571 1067.876 268.867 1064.474 272.552 C 1061.073 276.209 1058.947 281.283 1058.947 286.867 C 1058.947 290.354 1056.311 293.188 1053.08 293.188 L 1045.653 293.188 C 1040.777 293.188 1036.327 295.201 1033.01 298.489 C 1029.608 301.834 1027.368 306.483 1026.944 311.642 C 1026.661 314.93 1024.109 317.425 1021.104 317.396 L 1017.193 317.424 C 1012.034 317.424 1007.356 319.72 1003.955 323.405 C 1000.525 327.062 998.428 332.136 998.428 337.72 C 998.428 343.277 1000.526 348.35 1003.955 352.036 C 1007.356 355.721 1012.034 357.988 1017.193 357.988 L 1192.234 357.988 C 1197.393 357.988 1202.07 355.72 1205.501 352.036 C 1208.902 348.35 1211 343.277 1211 337.72 C 1211 332.136 1208.902 327.062 1205.501 323.405 C 1202.07 319.721 1197.394 317.425 1192.234 317.425 L 1192.234 317.425 Z " fill="rgb(210,246,255)"/><path d=" M 1069.209 515.767 C 1069.209 519.906 1065.836 523.279 1061.697 523.279 C 1057.558 523.279 1054.214 519.905 1054.214 515.767 L 1054.214 477.074 L 1040.466 490.822 C 1037.546 493.741 1032.812 493.741 1029.864 490.822 C 1026.944 487.874 1026.944 483.14 1029.864 480.192 L 1054.214 455.87 L 1054.214 439.996 L 1046.9 447.309 C 1043.98 450.229 1039.217 450.229 1036.298 447.309 C 1033.378 444.39 1033.378 439.627 1036.298 436.707 L 1054.213 418.792 L 1054.213 407.566 L 1053.334 408.445 C 1050.386 411.365 1045.652 411.365 1042.732 408.445 C 1039.784 405.525 1039.784 400.763 1042.732 397.843 L 1056.367 384.208 C 1057.756 382.763 1059.683 381.968 1061.696 381.968 C 1063.737 381.968 1065.636 382.762 1067.053 384.179 L 1080.688 397.842 C 1083.608 400.762 1083.608 405.524 1080.688 408.444 C 1077.768 411.364 1073.005 411.364 1070.086 408.444 L 1069.207 407.565 L 1069.207 418.791 L 1087.123 436.706 C 1090.043 439.626 1090.043 444.388 1087.123 447.308 C 1084.175 450.228 1079.44 450.228 1076.52 447.308 L 1069.207 439.995 L 1069.207 455.869 L 1093.529 480.191 C 1096.477 483.139 1096.477 487.873 1093.529 490.821 C 1090.609 493.74 1085.876 493.74 1082.927 490.821 L 1069.206 477.073 L 1069.206 515.767 L 1069.209 515.767 Z  M 1134.832 483.99 C 1131.912 486.91 1127.15 486.91 1124.23 483.99 C 1121.31 481.071 1121.31 476.308 1124.23 473.388 L 1146.68 450.937 L 1146.68 437.7 L 1140.812 443.568 C 1137.865 446.516 1133.13 446.516 1130.21 443.568 C 1127.263 440.649 1127.263 435.915 1130.21 432.966 L 1146.68 416.496 L 1146.68 407.567 C 1143.732 410.402 1139.055 410.374 1136.163 407.482 C 1133.243 404.534 1133.243 399.8 1136.163 396.88 L 1148.834 384.181 C 1150.251 382.764 1152.15 381.97 1154.191 381.97 C 1156.204 381.97 1158.131 382.764 1159.52 384.21 L 1172.192 396.881 C 1175.112 399.801 1175.112 404.534 1172.192 407.483 C 1169.3 410.375 1164.623 410.403 1161.674 407.568 L 1161.674 416.497 L 1178.173 432.967 C 1181.093 435.915 1181.093 440.649 1178.173 443.569 C 1175.225 446.517 1170.491 446.517 1167.543 443.569 L 1161.674 437.701 L 1161.674 450.939 L 1184.125 473.39 C 1187.073 476.31 1187.073 481.072 1184.125 483.992 C 1181.206 486.912 1176.443 486.912 1173.523 483.992 L 1161.673 472.143 L 1161.673 506.811 C 1161.673 510.95 1158.328 514.323 1154.19 514.323 C 1150.023 514.323 1146.678 510.949 1146.678 506.811 L 1146.678 472.143 L 1134.832 483.99 Z " fill="rgb(102,179,148)"/><path d=" M 889.718 610.021 C 889.718 614.159 886.344 617.533 882.205 617.533 C 878.067 617.533 874.722 614.159 874.722 610.021 L 874.722 529.544 C 874.722 525.406 878.067 522.061 882.205 522.061 C 886.344 522.061 889.718 525.406 889.718 529.544 L 889.718 610.021 Z " fill="rgb(145,125,82)"/><g><path d=" M 882.205 234 C 928.581 234 966.168 400.594 966.168 446.46 C 966.168 492.353 928.581 529.544 882.205 529.544 C 835.858 529.544 798.27 492.353 798.27 446.46 C 798.271 400.594 835.858 234 882.205 234 L 882.205 234 Z " fill-rule="evenodd" fill="rgb(102,179,148)"/><path d=" M 1211 676.068 L 1211 605.031 L 1211 516.419 C 1211 510.352 1206.351 508.425 1201.306 508.056 C 1188.578 507.177 1175.652 506.724 1162.527 506.724 C 1040.297 506.724 934.336 546.664 882.206 605.031 L 882.206 691.035 L 1211 691.035 L 1211 676.068 Z " fill-rule="evenodd" fill="rgb(149,214,164)"/><path d=" M 699 738.46 L 699 632.442 C 699 626.688 700.673 623.371 705.01 620.281 C 705.577 619.884 706.257 619.459 706.909 619.034 C 720.544 610.331 752.632 594.684 809.666 592.445 C 889.348 589.298 921.323 635.957 1002.566 655.573 C 1083.809 675.19 1211 676.068 1211 676.068 L 1211 738.459 C 1211 745.574 1208.561 745.999 1203.46 745.999 L 706.569 745.999 C 700.276 746 699 744.101 699 738.46 L 699 738.46 Z " fill-rule="evenodd" fill="rgb(179,229,159)"/><path d=" M 869.705 237.969 C 910.156 263.51 941.167 404.79 941.167 446.46 C 941.167 481.865 918.801 512.082 887.308 524.045 C 883.34 525.576 879.201 526.795 874.949 527.702 C 873.22 528.071 871.462 528.382 869.705 528.637 C 871.377 528.892 873.05 529.091 874.722 529.232 C 877.188 529.43 879.683 529.544 882.205 529.544 C 884.728 529.544 887.251 529.431 889.718 529.232 C 932.55 525.462 966.168 489.858 966.168 446.46 C 966.168 400.594 928.581 234 882.205 234 C 877.953 234 873.787 235.389 869.705 237.969 L 869.705 237.969 Z " fill-rule="evenodd" fill="rgb(90,166,135)"/><path d=" M 699 720.998 L 699 738.46 C 699 744.101 700.276 746 706.569 746 L 1203.46 746 C 1208.562 746 1211 745.575 1211 738.46 L 1211 720.998 C 1040.353 720.998 869.676 720.998 699 720.998 Z " fill-rule="evenodd" fill="rgb(149,214,164)"/><path d=" M 1002.566 655.574 C 1083.809 675.19 1211 676.068 1211 676.068 L 1211 651.066 C 1211 651.066 1083.809 650.215 1002.566 630.571 C 959.223 620.111 929.884 601.941 899.837 587.738 C 896.293 590.8 892.92 593.918 889.717 597.121 C 887.109 599.701 884.614 602.337 882.204 605.03 C 884.727 606.022 887.222 607.071 889.717 608.148 C 923.506 622.776 954.348 643.923 1002.566 655.574 L 1002.566 655.574 Z " fill-rule="evenodd" fill="rgb(120,194,164)"/><path d=" M 1017.193 357.989 L 1192.234 357.989 C 1197.393 357.989 1202.07 355.721 1205.501 352.037 C 1208.902 348.351 1211 343.278 1211 337.721 C 1211 333.016 1209.497 328.678 1206.975 325.22 C 1206.521 325.844 1206.011 326.467 1205.501 327.034 C 1202.07 330.719 1197.394 332.987 1192.234 332.987 L 1017.193 332.987 C 1012.034 332.987 1007.356 330.719 1003.955 327.034 C 1003.417 326.467 1002.906 325.844 1002.453 325.22 C 999.931 328.678 998.428 333.015 998.428 337.721 C 998.428 343.278 1000.526 348.351 1003.955 352.037 C 1007.356 355.721 1012.034 357.989 1017.193 357.989 L 1017.193 357.989 Z " fill-rule="evenodd" fill="rgb(184,240,255)"/></g></g><g><path d=" M 881 624 C 891.063 633.062 895.989 609.474 895.989 626.149 C 895.989 653.337 856.753 666.93 868.293 680.524 C 879.306 693.497 886.863 686.336 904 734 C 904.499 735.389 899.402 719.8 899 721.305 C 898.598 722.81 904.865 720.015 904 720 L 878 737 C 876.872 736.99 864.519 742.473 863.677 741 C 856.343 729.154 856.175 728.985 847.521 721.305 C 794.437 671.462 845.213 644.274 863.677 630.681 C 877.686 620.349 877.192 629.648 871.607 619" fill="rgb(243,213,91)"/><g><ellipse vector-effect="non-scaling-stroke" cx="879.8327081016143" cy="734.8987648596024" rx="2.3079956244140476" ry="4.531224464234924" fill="rgb(240,196,25)"/><ellipse vector-effect="non-scaling-stroke" cx="879.8327081016143" cy="707.7114180741928" rx="2.3079956244140476" ry="4.531224464234924" fill="rgb(240,196,25)"/><ellipse vector-effect="non-scaling-stroke" cx="835.9807912377496" cy="671.4616223603139" rx="2.3079956244140476" ry="4.531224464234924" fill="rgb(240,196,25)"/><ellipse vector-effect="non-scaling-stroke" cx="847.5207693598186" cy="662.399173431844" rx="2.3079956244140476" ry="4.531224464234924" fill="rgb(240,196,25)"/><ellipse vector-effect="non-scaling-stroke" cx="886.756694974857" cy="626.1493777179646" rx="2.3079956244140476" ry="4.531224464234924" fill="rgb(240,196,25)"/><ellipse vector-effect="non-scaling-stroke" cx="845.2127737354042" cy="675.9928468245488" rx="2.3079956244140476" ry="4.531224464234924" fill="rgb(240,196,25)"/></g></g><path d=" M 780.012 937 C 780.779 937.181 781.308 937.561 781.308 938 L 779 938 L 780.012 937 Z " fill="rgb(240,196,25)" fill-opacity="0.01"/><g><path d=" M 824 592.438 C 848.667 609 909.376 627.113 1011 627.113 L 1087 627.113 C 1155.48 627.113 1211 648.269 1211 674.363 C 1211 700.457 1155.48 721.613 1087 721.613 L 971 721.613 C 935.656 721.613 907 732.532 907 746 L 811 746 C 811 712.328 882.632 685.032 971 685.032 L 1087 685.032 C 1102.464 685.032 1115 680.255 1115 674.363 C 1115 668.47 1102.464 663.694 1087 663.694 L 1011 663.694 C 883.071 663.694 821.5 627.969 791 593.719 C 797.719 592.781 805.075 592.703 811 592.438" fill="rgb(136,146,160)"/><g><path d=" M 851 746 L 867 746 C 867 744.101 867.352 742.199 868.056 740.348 L 852.216 739.48 C 851.408 741.616 851 743.811 851 746 Z " fill="rgb(249,209,139)"/><path d=" M 808.391 596.755 C 810.758 598.882 813.502 600.999 816.544 603.048 L 823.113 601.99 C 820.27 600.077 817.71 598.101 815.499 596.116 L 808.391 596.755 Z " fill="rgb(249,209,139)"/><path d=" M 1100.744 699.747 L 1103.96 705.719 C 1115.76 704.795 1126.688 702.954 1136.44 700.241 L 1127.016 695.318 C 1119.12 697.509 1110.28 699 1100.744 699.747 Z " fill="rgb(249,209,139)"/><path d=" M 923 635.574 C 914.463 634.259 906.075 632.697 898.085 630.933 L 890.968 635.615 C 896.672 636.873 902.562 638.034 908.564 639.088 C 911.575 639.616 914.615 640.117 917.673 640.589 L 923 635.574 Z " fill="rgb(249,209,139)"/><path d=" M 1151.216 665.818 L 1166.328 663.806 C 1162.36 659.484 1156.128 655.603 1147.792 652.271 L 1136.216 656.481 C 1142.96 659.179 1148.016 662.319 1151.216 665.818 Z " fill="rgb(249,209,139)"/><path d=" M 847.626 615.967 C 843.321 614.334 839.223 612.589 835.463 610.781 L 829.108 612.61 C 833.144 614.55 837.528 616.417 842.14 618.167 L 847.626 615.967 Z " fill="rgb(249,209,139)"/><path d=" M 878.282 626.087 C 873.416 624.862 868.76 623.488 864.46 622 L 857.83 624.831 C 862.446 626.427 867.426 627.899 872.639 629.211 L 878.282 626.087 Z " fill="rgb(249,209,139)"/><path d=" M 1154.728 676.695 C 1153.864 680.402 1150.984 683.913 1146.176 687.142 L 1160.08 690.154 C 1166.032 686.16 1169.592 681.816 1170.664 677.238 L 1154.728 676.695 Z " fill="rgb(249,209,139)"/><path d=" M 978 642.02 C 967.048 641.584 956.063 640.849 945.366 639.837 L 941.274 646.116 C 952.743 647.2 964.501 647.986 976.243 648.452 L 978 642.02 Z " fill="rgb(249,209,139)"/><path d=" M 1037.712 700.274 L 1070.096 700.274 L 1070.096 706.371 L 1037.712 706.371 L 1037.712 700.274 Z " fill="rgb(249,209,139)"/><path d=" M 972.96 700.274 L 1005.336 700.274 L 1005.336 706.371 L 972.96 706.371 L 972.96 700.274 Z " fill="rgb(249,209,139)"/><path d=" M 1123.648 644.992 C 1113.648 643.455 1103.08 642.678 1092.24 642.678 L 1089 642.678 L 1089 648.775 L 1092.24 648.775 C 1101.024 648.775 1109.576 649.406 1117.664 650.646 L 1123.648 644.992 Z " fill="rgb(249,209,139)"/><path d=" M 862.024 726.835 L 876.536 729.395 C 880.744 725.926 886.256 722.707 892.904 719.827 L 880.888 715.803 C 873.224 719.122 866.872 722.832 862.024 726.835 Z " fill="rgb(249,209,139)"/><path d=" M 1042 642.355 L 1074.376 642.355 L 1074.376 648.452 L 1042 648.452 L 1042 642.355 Z " fill="rgb(249,209,139)"/><path d=" M 1000.24 642.355 L 1032.616 642.355 L 1032.616 648.452 L 1000.24 648.452 L 1000.24 642.355 Z " fill="rgb(249,209,139)"/><path d=" M 907.192 707.264 L 915.704 712.425 C 924.216 710.386 933.432 708.831 943.088 707.81 L 938.808 701.933 C 927.656 703.118 917.024 704.911 907.192 707.264 Z " fill="rgb(249,209,139)"/></g></g><path d=" M 1054.113 668.301 C 1054.113 672.44 1050.741 675.813 1046.602 675.813 C 1042.463 675.813 1039.119 672.44 1039.119 668.301 L 1039.119 601.261 C 1039.119 597.094 1042.464 593.749 1046.602 593.749 C 1050.741 593.749 1054.113 597.094 1054.113 601.261 L 1054.113 668.301 Z " fill="rgb(145,125,82)"/><path d=" M 1046.602 370.745 C 1079.825 370.745 1106.753 397.334 1106.753 430.131 C 1106.753 437.217 1105.479 443.993 1103.182 450.314 C 1101.395 455.218 1101.255 456.238 1105.195 460.122 C 1120.559 475.06 1130.083 495.839 1130.083 518.828 C 1130.083 564.353 1092.723 601.26 1046.602 601.26 C 1000.51 601.26 963.121 564.353 963.121 518.828 C 963.121 495.981 972.532 475.344 987.697 460.405 C 992.12 456.068 992.034 455.841 989.936 450.058 C 987.697 443.822 986.478 437.132 986.478 430.13 C 986.478 397.333 1013.379 370.745 1046.602 370.745 L 1046.602 370.745 Z " fill-rule="evenodd" fill="rgb(149,214,164)"/><path d=" M 1133.983 517.449 C 1133.983 494.46 1124.459 473.68 1109.094 458.742 C 1105.154 454.858 1105.296 453.839 1107.081 448.934 C 1115.104 426.966 1109.235 402.219 1092.256 386.033 C 1081.456 375.715 1066.716 369.364 1050.501 369.364 C 1046.221 369.364 1042.025 369.818 1038 370.64 C 1060.422 375.345 1078.224 392.354 1083.809 414.152 C 1086.728 425.576 1086.134 437.85 1082.08 448.934 C 1080.294 453.837 1080.152 454.858 1084.121 458.742 C 1099.456 473.68 1108.981 494.458 1108.981 517.447 C 1108.981 558.494 1078.452 592.964 1038.001 598.944 C 1039.646 599.199 1041.318 599.399 1043.019 599.539 C 1045.485 599.767 1047.98 599.879 1050.502 599.879 C 1096.055 599.88 1133.983 563.513 1133.983 517.449 L 1133.983 517.449 Z " fill-rule="evenodd" fill="rgb(120,194,164)"/></g></svg>